<svg xmlns="http://www.w3.org/2000/svg" width="32" height="32" viewBox="0 0 32 32">
  <g id="Layer_2" data-name="Layer 2" transform="translate(0.095 0.096)">
    <g id="invisible_box" data-name="invisible box" transform="translate(-0.095 -0.096)">
      <rect id="Rectangle_7543" data-name="Rectangle 7543" width="32" height="32" fill="none"/>
      <rect id="Rectangle_7544" data-name="Rectangle 7544" width="32" height="32" fill="none"/>
      <rect id="Rectangle_7545" data-name="Rectangle 7545" width="32" height="32" fill="none"/>
    </g>
    <g id="icons_Q2" data-name="icons Q2" transform="translate(1.265 1.264)">
      <g id="Group_26495" data-name="Group 26495">
        <path id="Path_142407" data-name="Path 142407" d="M16.64,2A14.573,14.573,0,1,0,27.011,6.268,14.64,14.64,0,0,0,16.64,2Zm0,26.618A11.978,11.978,0,1,1,28.618,16.64,11.978,11.978,0,0,1,16.64,28.618Z" transform="translate(-2 -2)" fill="#03314b"/>
        <path id="Path_142408" data-name="Path 142408" d="M26.64,18.654H21.316V13.331a1.331,1.331,0,1,0-2.662,0v5.324H13.331a1.331,1.331,0,1,0,0,2.662h5.324V26.64a1.331,1.331,0,0,0,2.662,0V21.316H26.64a1.331,1.331,0,0,0,0-2.662Z" transform="translate(-5.346 -5.345)" fill="#03314b"/>
      </g>
    </g>
  </g>
</svg>
